<svg fill="none" height="24" viewBox="0 0 24 24" width="24" xmlns="http://www.w3.org/2000/svg"><g clip-rule="evenodd" fill="#000" fill-rule="evenodd"><path d="m7 8.18182 4.9091-2.18182 4.9091 2.18182v3.27268c0 3.0273-2.0946 5.8582-4.9091 6.5455-2.81455-.6873-4.9091-3.5182-4.9091-6.5455zm4.9091 8.68908c2.1927-.6764 3.8182-2.9509 3.8182-5.4164v-2.5636l-3.8182-1.69636-3.8182 1.69636v2.5636c0 2.4655 1.62546 4.74 3.8182 5.4164z"/><path d="m12 22c5.5228 0 10-4.4772 10-10 0-5.52285-4.4772-10-10-10-5.52285 0-10 4.47715-10 10 0 5.5228 4.47715 10 10 10zm0-2c4.4183 0 8-3.5817 8-8 0-4.41828-3.5817-8-8-8-4.41828 0-8 3.58172-8 8 0 4.4183 3.58172 8 8 8z"/></g></svg>